<svg xmlns="http://www.w3.org/2000/svg" width="612" height="792" viewBox="0 0 612 792"><path d="M478.584 501.876c4.488-4.488 6.12-9.384 4.896-14.688-.408-2.446-1.43-4.69-3.062-6.73s-3.468-3.876-5.508-5.508l-72.216-42.23-.612-.61c-2.448-1.225-5.712-1.835-9.792-1.835-6.528 0-11.628 2.04-15.3 6.118l-21.42 21.42c-1.226 1.226-2.856 1.838-4.896 1.838-4.896-.815-10.812-3.06-17.748-6.73-5.712-3.265-12.954-7.855-21.726-13.772-8.772-5.916-18.87-14.587-30.294-26.01-8.16-8.567-15.708-17.137-22.644-25.705-5.712-6.936-11.016-14.484-15.912-22.644s-7.548-15.3-7.956-21.42c0-2.04.612-3.673 1.836-4.897l18.36-18.36c3.264-3.264 5.304-7.242 6.12-11.934.816-4.693.204-9.08-1.836-13.16l-39.78-74.663c-3.264-6.528-8.16-9.792-14.688-9.792-4.08 0-8.16 1.632-12.24 4.896l-48.96 49.573c-2.448 2.04-4.59 4.998-6.426 8.874-1.836 3.876-2.958 7.446-3.366 10.71v15.3l7.956 37.944c5.304 25.297 14.586 44.27 27.846 56.917 13.26 12.647 32.742 36.516 58.446 71.604 22.032 22.033 42.636 39.373 61.812 52.022 19.176 12.646 36.414 22.134 51.714 28.458 15.3 6.322 28.254 10.302 38.86 11.934 10.608 1.632 18.156 2.448 22.646 2.448 2.04 0 3.672-.104 4.896-.307 1.226-.203 2.04-.307 2.448-.307 3.264-.408 6.73-1.53 10.404-3.366 3.672-1.836 6.73-3.978 9.18-6.426l48.962-48.96zM306 90c42.024 0 81.702 8.058 119.034 24.174 37.332 16.116 69.768 37.944 97.308 65.484s49.368 59.976 65.484 97.308S612 353.976 612 396c0 28.152-3.672 55.284-11.016 81.396-7.346 26.11-17.646 50.488-30.906 73.134-13.26 22.644-29.172 43.248-47.736 61.812-18.562 18.564-39.168 34.478-61.812 47.736-22.646 13.26-47.022 23.562-73.135 30.906C361.285 698.328 334.152 702 306 702c-28.152 0-55.284-3.672-81.396-11.016-26.112-7.346-50.49-17.646-73.134-30.906-22.644-13.26-43.248-29.172-61.812-47.736-18.564-18.562-34.476-39.168-47.736-61.812-13.26-22.646-23.562-47.022-30.906-73.134C3.672 451.284 0 424.152 0 396s3.672-55.284 11.016-81.396c7.344-26.112 17.646-50.49 30.906-73.134 13.26-22.644 29.172-43.248 47.736-61.812 18.564-18.564 39.168-34.476 61.812-47.736 22.644-13.26 47.022-23.562 73.134-30.906C250.716 93.672 277.848 90 306 90z"/></svg>